# 3ds Max Wavefront OBJ Exporter v0.97b - (c)2007 guruware
# File Created: 06.11.2015 14:38:59

mtllib 3d-model.mtl

#
# object Group_001
#

v  169.0371 866.3721 -222.4999
v  169.0371 916.3720 -222.4999
v  169.0369 916.3720 222.5000
v  169.0369 866.3721 222.5000
v  168.1320 866.6146 -229.6175
v  168.1320 916.6146 -229.6175
v  165.4784 867.3257 -236.2499
v  165.4784 917.3256 -236.2499
v  161.2570 868.4568 -241.9454
v  161.2570 918.4567 -241.9454
v  155.7557 869.9309 -246.3156
v  155.7557 919.9308 -246.3156
v  149.3492 921.6474 -249.0629
v  149.3492 871.6475 -249.0629
v  142.4742 873.4896 -249.9999
v  142.4742 923.4896 -249.9999
v  149.3489 871.6475 249.0630
v  155.7554 869.9309 246.3158
v  155.7554 919.9308 246.3158
v  149.3489 921.6474 249.0630
v  165.4781 867.3257 236.2500
v  168.1318 866.6146 229.6176
v  168.1318 916.6146 229.6176
v  165.4781 917.3256 236.2500
v  161.2568 868.4568 241.9455
v  161.2568 918.4567 241.9455
v  142.4739 873.4896 250.0001
v  142.4739 923.4896 250.0001
v  -119.0369 0.0000 -250.0001
v  -119.0371 0.0000 249.9999
v  -169.0371 0.0000 249.9999
v  -169.0369 0.0000 -250.0001
v  -168.7706 980.6245 -250.0001
v  -167.9780 984.0237 -250.0001
v  -167.9783 984.0237 249.9999
v  -168.7709 980.6245 249.9999
v  -160.0863 995.2941 -250.0001
v  -160.0866 995.2941 249.9999
v  -162.6855 992.9644 249.9999
v  -162.6853 992.9644 -250.0001
v  -166.6776 987.2628 -250.0001
v  -164.8995 990.2662 -250.0001
v  -164.8998 990.2662 249.9999
v  -166.6779 987.2628 249.9999
v  -169.0369 977.1443 -250.0001
v  -169.0371 977.1443 249.9999
v  -143.6688 999.8857 -250.0001
v  -140.2383 999.2422 -250.0001
v  -140.2386 999.2422 249.9999
v  -143.6691 999.8857 249.9999
v  -147.1573 999.9999 -250.0001
v  -147.1576 999.9999 249.9999
v  -150.6229 999.5822 249.9999
v  -150.6226 999.5822 -250.0001
v  142.4739 923.4896 249.0630
v  -153.9840 998.6421 -250.0001
v  -153.9843 998.6421 249.9999
v  -157.1635 997.2016 249.9999
v  -157.1632 997.2016 -250.0001
v  -119.0371 913.7468 249.9999
v  -118.7709 917.2271 249.9999
v  -117.9783 920.6263 249.9999
v  -116.6779 923.8653 249.9999
v  -114.8998 926.8688 249.9999
v  -112.6855 929.5669 249.9999
v  -110.0866 931.8967 249.9999
v  -107.1635 933.8041 249.9999
v  -103.9843 935.2446 249.9999
v  -100.6229 936.1847 249.9999
v  -97.1576 936.6025 249.9999
v  -93.6691 936.4883 249.9999
v  -90.2386 935.8447 250.0000
v  -110.0863 931.8967 -250.0001
v  -112.6853 929.5669 -250.0001
v  -119.0369 913.7468 -250.0001
v  -118.7706 917.2271 -250.0001
v  -117.9780 920.6263 -250.0001
v  -116.6776 923.8653 -250.0001
v  -114.8995 926.8688 -250.0001
v  -107.1632 933.8041 -250.0001
v  -103.9840 935.2446 -250.0001
v  -100.6226 936.1847 -250.0001
v  -97.1573 936.6025 -250.0001
v  -93.6688 936.4883 -250.0001
v  -90.2383 935.8447 -250.0001
# 85 vertices

vn 1.0000 -0.0000 0.0000
vn 0.9920 -0.0000 -0.1262
vn 0.9284 -0.0000 -0.3715
vn 0.8034 -0.0000 -0.5955
vn 0.6220 -0.0000 -0.7830
vn 0.1350 -0.0000 -0.9908
vn 0.3941 -0.0000 -0.9191
vn 0.3941 -0.0000 0.9191
vn 0.9284 -0.0000 0.3715
vn 0.9920 -0.0000 0.1262
vn 0.6220 -0.0000 0.7830
vn 0.8034 -0.0000 0.5955
vn 0.1350 -0.0000 0.9908
vn 0.0000 -1.0000 0.0000
vn 0.9884 -0.1521 0.0000
vn 0.9537 -0.3007 0.0000
vn 0.6088 -0.7934 0.0000
vn 0.7224 -0.6915 0.0000
vn 0.8969 -0.4423 0.0000
vn 0.8192 -0.5736 0.0000
vn 0.9971 -0.0763 0.0000
vn -0.1089 -0.9941 -0.0000
vn -0.1844 -0.9829 -0.0000
vn 0.0436 -0.9990 0.0000
vn 0.1951 -0.9808 0.0000
vn -0.2588 -0.9659 -0.0000
vn 0.3420 -0.9397 0.0000
vn 0.4810 -0.8767 0.0000
vn -1.0000 0.0000 -0.0000
vn 0.0000 0.0000 -1.0000
vn -0.6088 0.7934 -0.0000
vn -0.7224 0.6915 -0.0000
vn -0.4810 0.8767 -0.0000
vn -0.9884 0.1521 -0.0000
vn -0.9971 0.0763 -0.0000
vn 0.2588 0.9659 0.0000
vn -0.9537 0.3007 -0.0000
vn -0.8969 0.4423 -0.0000
vn -0.8192 0.5736 -0.0000
vn 0.1844 0.9829 0.0000
vn 0.1089 0.9941 0.0000
vn -0.0436 0.9990 -0.0000
vn -0.1951 0.9808 -0.0000
vn -0.3420 0.9397 -0.0000
# 44 vertex normals

vt 0.0000 0.0000 0.0000
# 1 texture coords

g Group_001
usemtl wire_224086086
s off
f 1/1/1 2/1/1 3/1/1 4/1/1 
f 5/1/2 6/1/2 2/1/2 1/1/2 
f 7/1/3 8/1/3 6/1/3 5/1/3 
f 9/1/4 10/1/4 8/1/4 7/1/4 
f 10/1/5 9/1/5 11/1/5 12/1/5 
f 13/1/6 14/1/6 15/1/6 16/1/6 
f 12/1/7 11/1/7 14/1/7 13/1/7 
f 17/1/8 18/1/8 19/1/8 20/1/8 
f 21/1/9 22/1/9 23/1/9 24/1/9 
f 22/1/10 4/1/10 3/1/10 23/1/10 
f 18/1/11 25/1/11 26/1/11 19/1/11 
f 25/1/12 21/1/12 24/1/12 26/1/12 
f 27/1/13 17/1/13 20/1/13 28/1/13 
f 29/1/14 30/1/14 31/1/14 32/1/14 
f 33/1/15 34/1/16 35/1/16 36/1/15 
f 37/1/17 38/1/17 39/1/18 40/1/18 
f 41/1/19 42/1/20 43/1/20 44/1/19 
f 45/1/21 33/1/15 36/1/15 46/1/21 
f 47/1/22 48/1/23 49/1/23 50/1/22 
f 51/1/24 52/1/24 53/1/25 54/1/25 
f 43/1/20 42/1/20 40/1/18 39/1/18 
f 31/1/1 32/1/1 45/1/1 46/1/1 
f 34/1/16 41/1/19 44/1/19 35/1/16 
f 47/1/22 50/1/22 52/1/24 51/1/24 
f 16/1/26 55/1/26 28/1/26 48/1/26 
f 48/1/26 28/1/26 49/1/26 
f 56/1/27 57/1/27 58/1/28 59/1/28 
f 59/1/28 58/1/28 38/1/17 37/1/17 
f 54/1/25 53/1/25 57/1/27 56/1/27 
f 55/1/29 16/1/29 15/1/29 27/1/29 
f 55/1/29 27/1/29 28/1/29 
f 20/1/26 28/1/26 55/1/26 16/1/26 
f 20/1/26 16/1/26 13/1/26 19/1/26 
f 19/1/26 13/1/26 12/1/26 26/1/26 
f 26/1/26 12/1/26 10/1/26 24/1/26 
f 24/1/26 10/1/26 8/1/26 6/1/26 
f 23/1/26 24/1/26 6/1/26 3/1/26 
f 3/1/26 6/1/26 2/1/26 
f 60/1/30 30/1/30 31/1/30 46/1/30 
f 61/1/30 60/1/30 46/1/30 62/1/30 
f 63/1/30 62/1/30 46/1/30 64/1/30 
f 65/1/30 64/1/30 46/1/30 66/1/30 
f 67/1/30 66/1/30 46/1/30 68/1/30 
f 69/1/30 68/1/30 46/1/30 70/1/30 
f 70/1/30 46/1/30 49/1/30 71/1/30 
f 72/1/30 71/1/30 49/1/30 28/1/30 
f 72/1/30 28/1/30 27/1/30 
f 49/1/30 46/1/30 36/1/30 35/1/30 
f 49/1/30 35/1/30 44/1/30 43/1/30 
f 49/1/30 43/1/30 39/1/30 38/1/30 
f 49/1/30 38/1/30 58/1/30 57/1/30 
f 49/1/30 57/1/30 53/1/30 50/1/30 
f 50/1/30 53/1/30 52/1/30 
f 66/1/31 73/1/31 74/1/32 65/1/32 
f 75/1/30 29/1/30 32/1/30 45/1/30 
f 76/1/30 75/1/30 45/1/30 77/1/30 
f 78/1/30 77/1/30 45/1/30 79/1/30 
f 74/1/30 79/1/30 45/1/30 73/1/30 
f 80/1/30 73/1/30 45/1/30 81/1/30 
f 82/1/30 81/1/30 45/1/30 83/1/30 
f 83/1/30 45/1/30 48/1/30 84/1/30 
f 85/1/30 84/1/30 48/1/30 16/1/30 
f 85/1/30 16/1/30 15/1/30 
f 48/1/30 45/1/30 33/1/30 34/1/30 
f 48/1/30 34/1/30 41/1/30 42/1/30 
f 48/1/30 42/1/30 40/1/30 37/1/30 
f 48/1/30 37/1/30 59/1/30 56/1/30 
f 48/1/30 56/1/30 54/1/30 47/1/30 
f 47/1/30 54/1/30 51/1/30 
f 75/1/29 29/1/29 30/1/29 60/1/29 
f 67/1/33 80/1/33 73/1/31 66/1/31 
f 76/1/34 75/1/35 60/1/35 61/1/34 
f 27/1/36 15/1/36 85/1/36 72/1/36 
f 77/1/37 76/1/34 61/1/34 62/1/37 
f 78/1/38 77/1/37 62/1/37 63/1/38 
f 74/1/32 79/1/39 64/1/39 65/1/32 
f 72/1/40 85/1/40 84/1/41 71/1/41 
f 71/1/41 84/1/41 83/1/42 70/1/42 
f 70/1/42 83/1/42 82/1/43 69/1/43 
f 69/1/43 82/1/43 81/1/44 68/1/44 
f 79/1/39 78/1/38 63/1/38 64/1/39 
f 68/1/44 81/1/44 80/1/33 67/1/33 
# 75 polygons - 7 triangles

